<svg viewBox="0 0 19 19" fill="none" xmlns="http://www.w3.org/2000/svg">
<path fill-rule="evenodd" clip-rule="evenodd" d="M12.7141 7.82334C12.7141 10.5241 10.5246 12.7136 7.82383 12.7136C5.12303 12.7136 2.93359 10.5241 2.93359 7.82334C2.93359 5.12254 5.12303 2.93311 7.82383 2.93311C10.5246 2.93311 12.7141 5.12254 12.7141 7.82334ZM12.0893 13.2349C10.9161 14.1609 9.4345 14.7136 7.82383 14.7136C4.01846 14.7136 0.933594 11.6287 0.933594 7.82334C0.933594 4.01797 4.01846 0.933105 7.82383 0.933105C11.6292 0.933105 14.7141 4.01797 14.7141 7.82334C14.7141 9.43385 14.1615 10.9153 13.2357 12.0885L17.7771 16.6299C18.0936 16.9464 18.0936 17.4597 17.7771 17.7762C17.4605 18.0928 16.9472 18.0928 16.6307 17.7762L12.0893 13.2349Z" fill="white"/>
</svg>
